<svg width="49" height="40" viewBox="0 0 49 40" fill="none" xmlns="http://www.w3.org/2000/svg">
<path d="M20.3701 8.65356V19.9743L27.9173 23.7479" stroke="#212428" stroke-width="1.7" stroke-linecap="round" stroke-linejoin="round"/>
<path d="M37.8259 12.8046C36.4026 9.33548 33.978 6.36912 30.8615 4.28407C27.7449 2.19903 24.0778 1.08989 20.3281 1.09819C16.5784 1.1065 12.9162 2.23188 9.80892 4.3307C6.70164 6.42953 4.29019 9.40661 2.88233 12.882C1.47448 16.3574 1.13409 20.1734 1.90459 23.8431C2.67509 27.5128 4.52155 30.8697 7.20829 33.4854C9.89504 36.101 13.3002 37.8568 16.9893 38.5287C20.6783 39.2005 24.4838 38.7579 27.9202 37.2574" stroke="#212428" stroke-width="1.7" stroke-linecap="round" stroke-linejoin="round"/>
<circle cx="38.4111" cy="28" r="10" fill="white"/>
<path d="M35.2111 32V26L34.1911 26.66L33.6511 25.76L35.5711 24.44H36.3511V32H35.2111ZM37.7349 32V31.16L40.7349 27.92C40.8669 27.776 40.9869 27.632 41.0949 27.476C41.2749 27.2 41.4549 26.876 41.4549 26.54C41.4549 25.868 40.9869 25.4 40.1349 25.4C39.3549 25.4 38.8149 25.94 38.8149 26.72H37.6749C37.6749 25.34 38.6349 24.38 40.1349 24.38C41.6349 24.38 42.5949 25.34 42.5949 26.6C42.5949 27.08 42.3309 27.584 42.0549 27.956C41.8989 28.172 41.7189 28.376 41.5149 28.58L39.3669 30.92H42.5949V32H37.7349Z" fill="#212428"/>
</svg>
