<svg width="52" height="40" viewBox="0 0 52 40" fill="none" xmlns="http://www.w3.org/2000/svg">
<path d="M1.2334 25.409C2.69854 26.4611 4.16369 27.5132 7.33817 27.5132C13.4429 27.5132 13.4429 23.3047 19.5477 23.3047C25.8967 23.3047 25.4083 27.5132 31.7573 27.5132C37.862 27.5132 37.862 23.3047 43.9668 23.3047C47.1413 23.3047 48.6064 24.3568 50.0716 25.409" stroke="#EB141A" stroke-width="1.7" stroke-linecap="round" stroke-linejoin="round"/>
<path d="M1.2334 14.5911C2.69854 15.6432 4.16369 16.6954 7.33817 16.6954C13.4429 16.6954 13.4429 12.4868 19.5477 12.4868C25.8967 12.4868 25.4083 16.6954 31.7573 16.6954C37.862 16.6954 37.862 12.4868 43.9668 12.4868C47.1413 12.4868 48.6064 13.539 50.0716 14.5911" stroke="#AB0605" stroke-width="1.7" stroke-linecap="round" stroke-linejoin="round"/>
<path d="M1.2334 3.77347C2.69854 4.82561 4.16369 5.87775 7.33817 5.87775C13.4429 5.87775 13.4429 1.66919 19.5477 1.66919C25.8967 1.66919 25.4083 5.87775 31.7573 5.87775C37.862 5.87775 37.862 1.66919 43.9668 1.66919C47.1413 1.66919 48.6064 2.72133 50.0716 3.77347" stroke="#900041" stroke-width="1.7" stroke-linecap="round" stroke-linejoin="round"/>
<path d="M1.2334 36.2268C2.69854 37.279 4.16369 38.3311 7.33817 38.3311C13.4429 38.3311 13.4429 34.1226 19.5477 34.1226C25.8967 34.1226 25.4083 38.3311 31.7573 38.3311C37.862 38.3311 37.862 34.1226 43.9668 34.1226C47.1413 34.1226 48.6064 35.1747 50.0716 36.2268" stroke="#FF262C" stroke-width="1.7" stroke-linecap="round" stroke-linejoin="round"/>
</svg>
