<svg width="134" height="30" viewBox="0 0 134 30" fill="none" xmlns="http://www.w3.org/2000/svg">
<path fill-rule="evenodd" clip-rule="evenodd" d="M0 1.40268L0.00430519 29.9447C1.57364 30.0435 3.95479 29.9801 5.60892 29.9786C11.8584 29.9771 14.6573 28.9748 18.1855 25.9103C20.7287 23.7014 23.2312 19.1741 22.6822 13.9026L16.6474 13.8544C16.6474 13.8544 16.6648 16.1111 16.6648 16.0916L20.3166 16.127C20.2651 20.4703 17.3834 24.006 14.9506 25.6624C11.4722 28.0308 7.36431 28.1816 2.31563 27.9916L2.28812 1.99242C8.28656 1.89859 14.151 1.89115 17.9317 7.08748C19.4129 9.12327 19.1414 9.47473 19.8582 10.9749L22.2721 11.0302C21.911 7.96538 19.3288 4.71884 16.9531 2.91686C13.2325 0.0945666 9.04483 0.000930774 4.11501 0L0.00505392 0.0335079L0 1.40268H0Z" fill="#F0682B"/>
<path fill-rule="evenodd" clip-rule="evenodd" d="M9.03584 11.1152H11.1044V13.8724H13.8766V15.9294H11.1044V18.6865H9.03584V15.9294H6.26367V13.8724H9.03584V11.1152Z" fill="#F0682B"/>
<path fill-rule="evenodd" clip-rule="evenodd" d="M34.8221 5.03474C38.8885 4.63599 40.7749 5.92754 40.7682 9.91125C40.7614 13.7544 38.7646 15.0743 34.8012 14.6645L34.8221 5.03474ZM33.4465 15.8261C38.2204 16.4058 42.1921 15.2867 42.1552 9.79714C42.1395 7.47579 41.3417 5.67474 39.9017 4.7071C38.5094 3.77168 35.4805 3.60991 33.4297 3.87872L33.4465 15.8261Z" fill="#F0682B"/>
<path fill-rule="evenodd" clip-rule="evenodd" d="M52.3825 5.02126C56.4423 4.80066 58.3266 5.77202 58.3204 9.91247C58.3137 14.3264 55.8405 14.864 52.346 14.6767L52.3825 5.02126ZM50.9964 15.8374C53.3627 15.9806 55.8884 16.0591 57.5144 14.9132C60.4305 12.8584 60.5024 6.7914 57.4637 4.73327C55.803 3.60834 53.3532 3.76099 50.9749 3.85071L50.9964 15.8374Z" fill="#F0682B"/>
<path fill-rule="evenodd" clip-rule="evenodd" d="M105.91 14.8769C106.189 15.1092 106.115 14.7805 106.152 15.6943L106.838 15.626C107.002 15.2394 106.974 10.8565 106.887 10.2292C105.691 10.277 104.408 10.0602 103.204 10.2979C103.103 10.7379 103.12 10.6639 103.298 11.0364C103.915 11.2149 104.917 11.1389 105.593 11.0533L105.739 11.2932C105.5 12.7285 105.914 13.2162 104.909 14.1639C103.707 15.2971 99.5545 15.7623 99.4066 10.2567C99.2177 3.22045 104.953 3.74131 105.799 7.46311L107.089 7.21199C106.749 4.98036 104.856 3.43527 102.121 3.71041C99.717 3.95223 98.5132 5.85156 98.1544 8.15058C97.584 11.8048 98.6384 16.0553 102.816 16.0301C104.518 16.0199 104.94 15.6063 105.91 14.8769Z" fill="#F0682B"/>
<path fill-rule="evenodd" clip-rule="evenodd" d="M61.7704 10.7059C61.7213 7.3376 66.209 7.06823 66.0658 10.7228L61.7704 10.7059ZM66.5894 13.5559C65.3227 16.0869 61.4784 15.0171 61.726 11.783L67.3269 11.7731C67.4145 9.33951 66.8364 7.38749 64.6526 7.07419C59.703 6.36382 59.2374 13.9414 62.4807 15.6288C64.5066 16.683 66.9834 15.6725 67.5511 14.025C67.2782 13.7765 67.0219 13.6363 66.5894 13.5559Z" fill="#F0682B"/>
<path fill-rule="evenodd" clip-rule="evenodd" d="M115.563 8.15815C118.95 7.356 119.22 14.2115 116.568 14.894C114.683 15.3793 113.787 13.713 113.69 12.0851C113.574 10.1569 113.968 8.53567 115.563 8.15815ZM112.459 12.4252C113.19 17.935 120.315 17.1139 119.528 10.6753C118.846 5.09013 111.602 5.97306 112.459 12.4252Z" fill="#F0682B"/>
<path fill-rule="evenodd" clip-rule="evenodd" d="M78.5191 10.1399C78.5212 9.24006 78.7059 9.14736 79.2549 8.76499C79.6604 8.4826 80.1652 8.19313 80.6539 8.12462C82.32 7.89062 82.3743 8.99117 82.3747 10.3685L82.3964 15.8554L83.6052 15.8361C83.687 14.5829 83.7763 9.28511 83.4248 8.39976C83.0802 7.53172 82.2248 6.99354 80.9819 7.03878C79.499 7.09295 78.9382 8.09111 78.5245 8.23966L78.4757 7.17784L77.2745 7.18472C77.2637 9.80355 77.1836 13.4237 77.2998 15.8724L78.5169 15.7998L78.5191 10.1399Z" fill="#F0682B"/>
<path fill-rule="evenodd" clip-rule="evenodd" d="M70.1799 15.847C70.3005 14.3474 70.2039 12.4795 70.205 10.9396C70.2058 9.89267 69.9989 9.5064 70.6372 8.99745C71.0034 8.70537 71.6052 8.28987 72.2026 8.15286C75.0658 7.49685 73.7842 11.5588 74.0994 15.8623L75.3089 15.8221C75.3863 14.6951 75.4317 9.25955 75.162 8.49688C74.846 7.60352 74.0342 7.02998 72.8233 7.03519C71.2284 7.04208 71.0202 7.89001 70.2166 8.1994L70.1768 7.1776L68.9524 7.22749L68.9666 15.8461L70.1799 15.847Z" fill="#F0682B"/>
<path fill-rule="evenodd" clip-rule="evenodd" d="M119.953 14.3684C120.563 15.5726 122.848 16.5 124.728 15.8208C125.492 15.5451 126.137 15.0154 126.352 14.2228C127.361 10.5019 121.773 11.1496 121.441 9.54491C121.222 8.49388 122.196 8.03984 123.142 8.10258C124.356 8.18281 124.558 8.90807 125.226 9.24762C125.533 9.07505 125.797 8.81909 126.004 8.53986C125.084 6.65336 120.151 6.14013 120.156 9.45462C120.158 10.4954 120.596 10.9638 121.439 11.3953C122.539 11.9593 125.816 12.2144 125.111 14.0283C124.822 14.7725 123.892 15.0841 122.833 14.9183C121.741 14.7472 121.486 14.2423 120.834 13.6608L119.953 14.3684Z" fill="#F0682B"/>
<path fill-rule="evenodd" clip-rule="evenodd" d="M126.71 14.3679C127.258 15.6051 129.693 16.4694 131.494 15.8147C133.215 15.189 133.896 13.0352 132.447 11.7534C131.396 10.8233 128.423 10.6402 128.2 9.55208C127.979 8.47294 128.933 8.03752 129.927 8.10305C131.215 8.18812 131.316 8.93907 132.005 9.23655C132.358 8.99957 132.528 8.89049 132.745 8.5394C132.223 7.38189 129.727 6.49411 128.096 7.39492C127.417 7.76965 126.913 8.43403 126.919 9.45267C126.938 12.637 132.912 11.425 131.842 14.0857C131.479 14.9906 129.327 15.6972 127.671 13.6812C127.259 13.837 126.983 14.066 126.71 14.3679Z" fill="#F0682B"/>
<path fill-rule="evenodd" clip-rule="evenodd" d="M88.187 14.368C88.6782 15.557 91.1833 16.4719 92.9952 15.7975C94.6166 15.1939 95.3926 13.0636 93.9375 11.7685C92.8636 10.813 89.8866 10.6512 89.6512 9.52869C89.2747 7.73528 92.3449 7.63177 93.3295 9.25933C93.7385 9.1158 94.0105 8.87268 94.2136 8.53947C93.6035 7.3531 91.152 6.4603 89.5106 7.41546C87.8828 8.36243 88.0339 10.5751 89.6203 11.3763C90.8849 12.015 94.0352 12.1963 93.3188 14.0608C93.0047 14.8779 91.9621 15.0776 90.9966 14.913C89.8327 14.715 89.6369 14.0379 89.0183 13.6867L88.187 14.368Z" fill="#F0682B"/>
<path fill-rule="evenodd" clip-rule="evenodd" d="M109.8 12.0825C109.802 10.8539 109.972 10.2787 110.527 9.4646C111.065 8.67809 111.424 8.50366 112.66 8.25831L112.642 7.10639C110.877 6.90236 110.346 8.28307 109.812 8.67232L109.782 7.19257L108.554 7.18513L108.572 15.8657L109.791 15.8197L109.8 12.0825Z" fill="#F0682B"/>
<path fill-rule="evenodd" clip-rule="evenodd" d="M44.3287 15.8505C44.546 13.3564 43.7209 10.8744 45.4101 9.04765C46.1051 8.29614 46.4852 8.59641 47.2209 8.19748L47.2265 7.11647C45.554 7.00348 45.1963 7.86631 44.3991 8.64834L44.3257 7.18405L43.124 7.18033L43.1536 15.8604L44.3287 15.8505Z" fill="#F0682B"/>
<path fill-rule="evenodd" clip-rule="evenodd" d="M85.4504 15.8764L86.7049 15.8236L86.6787 7.18429L85.4309 7.18262L85.4504 15.8764Z" fill="#F0682B"/>
<path fill-rule="evenodd" clip-rule="evenodd" d="M105.74 11.2919L105.594 11.052C104.919 11.1376 103.916 11.2136 103.299 11.035C103.121 10.6625 103.105 10.7366 103.205 10.2966C104.41 10.0588 105.692 10.2757 106.889 10.2279C106.975 10.8552 107.003 15.238 106.84 15.6247L106.154 15.693C106.117 14.7792 106.191 15.1079 105.911 14.8756L105.952 15.8609L107.089 15.8572L107.047 10.0361L102.987 10.0836C102.899 11.1335 102.759 11.2789 103.731 11.2649C104.4 11.2551 105.073 11.2387 105.74 11.2919Z" fill="#F0682B"/>
<path d="M36.722 24.9229C36.722 25.2195 36.6451 25.473 36.4911 25.6808C36.3372 25.8898 36.1221 26.0486 35.8449 26.1584C35.5688 26.2681 35.2425 26.323 34.8676 26.323C34.6696 26.323 34.4828 26.3137 34.3055 26.2949C34.1296 26.2774 33.9671 26.2506 33.8194 26.2167C33.6715 26.1817 33.5409 26.1396 33.4297 26.0894V25.5324C33.6081 25.6026 33.8267 25.669 34.0845 25.7286C34.3422 25.7893 34.611 25.8198 34.8933 25.8198C35.1559 25.8198 35.3769 25.786 35.5591 25.7193C35.7397 25.6515 35.8778 25.5547 35.9718 25.4274C36.066 25.3012 36.1135 25.1495 36.1135 24.9708C36.1135 24.8004 36.0746 24.6567 35.9952 24.5422C35.917 24.4266 35.7861 24.3217 35.6029 24.2271C35.4209 24.1325 35.1718 24.032 34.8577 23.9246C34.6355 23.8486 34.4399 23.7669 34.2701 23.6759C34.1004 23.586 33.9587 23.4843 33.8437 23.37C33.7301 23.2567 33.6434 23.1236 33.5849 22.973C33.5261 22.8235 33.4969 22.6507 33.4969 22.4569C33.4969 22.1906 33.5676 21.9618 33.7106 21.7713C33.8523 21.5811 34.0491 21.4351 34.3006 21.3335C34.5524 21.232 34.842 21.1807 35.168 21.1807C35.4479 21.1807 35.7056 21.2064 35.9439 21.2564C36.1809 21.3067 36.3982 21.3731 36.5962 21.4584L36.4068 21.9571C36.2187 21.8823 36.0184 21.8194 35.8071 21.7691C35.5969 21.7188 35.3783 21.6945 35.1546 21.6945C34.9298 21.6945 34.7405 21.7259 34.5865 21.7877C34.4326 21.8508 34.3152 21.9396 34.2348 22.0528C34.153 22.1673 34.1125 22.3028 34.1125 22.4603C34.1125 22.6355 34.1516 22.7814 34.2286 22.8981C34.3068 23.015 34.4302 23.1178 34.6013 23.2077C34.7722 23.2976 34.9983 23.3922 35.2792 23.4903C35.5871 23.5977 35.8485 23.7109 36.0635 23.83C36.2786 23.9503 36.4411 24.0962 36.5534 24.2679C36.6659 24.4406 36.722 24.6592 36.722 24.9229ZM41.703 26.2541H40.9834L39.0972 23.8218L38.539 24.3006V26.2541H37.9305V21.2529H38.539V23.7472C38.6745 23.5988 38.8149 23.4505 38.9579 23.3034C39.1009 23.1563 39.2426 23.008 39.383 22.8574L40.9114 21.2529H41.6236L39.5406 23.4214L41.703 26.2541ZM42.561 26.2541V21.2529H43.1693V26.2541H42.561ZM48.8417 26.2541H48.1394L45.2867 22.0528H45.2587C45.266 22.1649 45.2746 22.2922 45.2832 22.4346C45.2929 22.5772 45.3013 22.7289 45.3075 22.8901C45.3124 23.05 45.3161 23.2135 45.3161 23.3805V26.2541H44.7505V21.2529H45.4481L48.2895 25.4403H48.3152C48.3103 25.3597 48.3043 25.2465 48.297 25.0992C48.2895 24.9522 48.2835 24.7945 48.2774 24.624C48.2712 24.4536 48.2687 24.296 48.2687 24.15V21.2529H48.8417V26.2541ZM52.6488 21.6945C52.3605 21.6945 52.1002 21.741 51.8707 21.8357C51.6397 21.9303 51.4443 22.0681 51.2829 22.2468C51.1216 22.4253 50.9984 22.6412 50.9129 22.8948C50.8273 23.1481 50.7845 23.433 50.7845 23.7494C50.7845 24.1698 50.853 24.5341 50.9898 24.8436C51.1266 25.1519 51.3318 25.3913 51.6055 25.5594C51.8791 25.7286 52.22 25.8128 52.6305 25.8128C52.865 25.8128 53.0849 25.794 53.2914 25.7567C53.4979 25.7193 53.6982 25.6715 53.8949 25.6141V26.121C53.703 26.1888 53.5027 26.2402 53.2925 26.2727C53.0825 26.3055 52.8334 26.323 52.5449 26.323C52.0124 26.323 51.5688 26.2167 51.2122 26.0065C50.8554 25.7953 50.5877 25.4974 50.4095 25.111C50.2323 24.7256 50.1432 24.2714 50.1432 23.7472C50.1432 23.3676 50.1993 23.0219 50.3094 22.7079C50.4204 22.395 50.5831 22.1241 50.7968 21.8964C51.0106 21.6675 51.2732 21.4912 51.5836 21.3674C51.895 21.2425 52.2529 21.1807 52.6561 21.1807C52.9212 21.1807 53.1765 21.2064 53.4221 21.2564C53.6676 21.3067 53.89 21.378 54.0879 21.4713L53.8447 21.964C53.6774 21.8918 53.4941 21.8276 53.295 21.7749C53.096 21.7213 52.8798 21.6945 52.6488 21.6945ZM58.452 26.2541L57.8081 24.6673H55.7105L55.0704 26.2541H54.4547L56.5021 21.232H57.0495L59.0823 26.2541H58.452ZM57.6262 24.15L57.0141 22.5737C56.9995 22.5327 56.9761 22.4649 56.9445 22.3717C56.9115 22.2782 56.8784 22.1812 56.8454 22.0809C56.8125 21.9804 56.7844 21.8998 56.7636 21.838C56.7391 21.9314 56.7135 22.0236 56.6867 22.117C56.6586 22.2094 56.6317 22.2946 56.606 22.3728C56.5791 22.4521 56.5572 22.5187 56.5375 22.5737L55.9146 24.15H57.6262ZM61.361 21.2529C61.791 21.2529 62.1453 21.3032 62.4263 21.4048C62.7061 21.5064 62.9161 21.6606 63.0543 21.8683C63.1922 22.0763 63.2619 22.34 63.2619 22.6623C63.2619 22.9262 63.2119 23.147 63.1117 23.3244C63.0114 23.5007 62.8796 23.6444 62.7183 23.753C62.5558 23.8628 62.3823 23.9467 62.199 24.0063L63.6345 26.2541H62.9247L61.6444 24.1675H60.5559V26.2541H59.9476V21.2529H61.361ZM61.3256 21.7551H60.5559V23.6748H61.3867C61.8131 23.6748 62.1283 23.5917 62.3299 23.4248C62.5313 23.2591 62.6314 23.0137 62.6314 22.6893C62.6314 22.3493 62.5253 22.1088 62.3115 21.9675C62.0976 21.8262 61.7691 21.7551 61.3256 21.7551ZM67.527 26.2541H64.6133V21.2529H67.527V21.7656H65.2218V23.384H67.3939V23.8907H65.2218V25.7415H67.527V26.2541Z" fill="#F0682B"/>
</svg>
