<svg width="256" height="18" viewBox="0 0 256 18" fill="none" xmlns="http://www.w3.org/2000/svg">
<g clip-path="url(#clip0_8618_17909)">
<path d="M26.25 0H2.25C0.975 0 0 0.975 0 2.25V15.75C0 17.025 1.05 18 2.25 18H26.25C27.525 18 28.5 17.025 28.5 15.75V2.25C28.5 0.975 27.45 0 26.25 0Z" fill="#8B8C8E"/>
<path d="M26.25 0.75C27.075 0.75 27.75 1.425 27.75 2.25V15.75C27.75 16.575 27.075 17.25 26.25 17.25H2.25C1.425 17.25 0.75 16.575 0.75 15.75V2.25C0.75 1.425 1.425 0.75 2.25 0.75H26.25Z" fill="#FFB3C7"/>
<path d="M25.5878 10.638C25.2225 10.638 24.9263 10.938 24.9263 11.307C24.9263 11.6768 25.2225 11.9767 25.5878 11.9767C25.9538 11.9767 26.25 11.6768 26.25 11.307C26.2508 11.1305 26.1815 10.9609 26.0573 10.8354C25.9331 10.71 25.7643 10.639 25.5878 10.638V10.638ZM23.4105 10.1205C23.4105 9.6135 22.983 9.20325 22.455 9.20325C21.927 9.20325 21.4995 9.6135 21.4995 10.1198C21.4995 10.626 21.927 11.037 22.455 11.037C22.983 11.037 23.4105 10.626 23.4105 10.1198V10.1205ZM23.4142 8.3385H24.4688V11.901H23.4142V11.6737C23.1071 11.8864 22.7423 12.0002 22.3688 12C21.342 12 20.5103 11.1585 20.5103 10.1198C20.5103 9.08175 21.3428 8.24025 22.3688 8.24025C22.7565 8.24025 23.1157 8.36025 23.4142 8.5665V8.3385V8.3385ZM14.9745 8.80275V8.3385H13.8945V11.901H14.9767V10.2383C14.9767 9.6765 15.5782 9.37575 15.996 9.37575H16.008V8.33925C15.5805 8.33925 15.186 8.5245 14.9745 8.80275V8.80275ZM12.285 10.1198C12.285 9.6135 11.8575 9.20325 11.3295 9.20325C10.8022 9.20325 10.374 9.6135 10.374 10.1198C10.374 10.626 10.8015 11.037 11.3295 11.037C11.8575 11.037 12.285 10.626 12.285 10.1198ZM12.2888 8.3385H13.3433V11.901H12.2888V11.6737C11.9814 11.8866 11.6163 12.0004 11.2425 12C10.2165 12 9.384 11.1585 9.384 10.1198C9.384 9.08175 10.2165 8.24025 11.2425 8.24025C11.6302 8.24025 11.9903 8.36025 12.288 8.5665V8.3385H12.2888ZM18.636 8.2425C18.2152 8.2425 17.8162 8.37525 17.55 8.73975V8.3385H16.5V11.901H17.5627V10.029C17.5627 9.4875 17.922 9.222 18.354 9.222C18.8175 9.222 19.0837 9.5025 19.0837 10.0215V11.9018H20.1375V9.636C20.1375 8.8065 19.485 8.2425 18.636 8.2425V8.2425ZM7.84875 11.9025H8.95275V6.75H7.84875V11.901V11.9025ZM3 11.9025H4.1685V6.75H3V11.9025V11.9025ZM7.0875 6.75C7.09046 7.29216 6.98646 7.82958 6.78145 8.3315C6.57644 8.83341 6.27444 9.28996 5.89275 9.675L7.50825 11.9025H6.0645L4.30875 9.4815L4.76175 9.138C5.13127 8.85959 5.43064 8.4987 5.63599 8.0841C5.84133 7.6695 5.94698 7.21266 5.9445 6.75H7.0875Z" fill="#0A0B09"/>
</g>
<g clip-path="url(#clip1_8618_17909)">
<path d="M58.75 0H34.75C33.475 0 32.5 0.975 32.5 2.25V15.75C32.5 17.025 33.55 18 34.75 18H58.75C60.025 18 61 17.025 61 15.75V2.25C61 0.975 59.95 0 58.75 0Z" fill="#8B8C8E"/>
<path d="M58.75 0.75C59.575 0.75 60.25 1.425 60.25 2.25V15.75C60.25 16.575 59.575 17.25 58.75 17.25H34.75C33.925 17.25 33.25 16.575 33.25 15.75V2.25C33.25 1.425 33.925 0.75 34.75 0.75H58.75Z" fill="white"/>
<path d="M41.7695 11.6116C42.4226 12.2646 43.3083 12.6315 44.2318 12.6315C45.1553 12.6315 46.041 12.2646 46.694 11.6116L46.8245 11.4811C47.504 10.8016 46.1443 7.23614 46.8245 6.55664L41.7695 11.6116Z" fill="url(#paint0_linear_8618_17909)"/>
<path d="M46.9565 6.42528L46.826 6.55578C46.1465 7.23528 47.5055 10.8008 46.826 11.4803L51.881 6.42528C51.558 6.10149 51.1742 5.84469 50.7517 5.66965C50.3291 5.49461 49.8762 5.40477 49.4188 5.40528C48.9614 5.40452 48.5083 5.49425 48.0858 5.66931C47.6632 5.84436 47.2794 6.10128 46.9565 6.42528Z" fill="url(#paint1_linear_8618_17909)"/>
<path d="M41.7699 6.687C41.1169 7.34004 40.75 8.22574 40.75 9.14925C40.75 10.0728 41.1169 10.9585 41.7699 11.6115L46.9569 6.4245C47.6099 5.77146 47.9767 4.88576 47.9767 3.96225C47.9767 3.03874 47.6099 2.15304 46.9569 1.5L41.7699 6.687Z" fill="url(#paint2_linear_8618_17909)"/>
<path d="M46.6947 11.6113C46.0417 12.2644 45.6748 13.1501 45.6748 14.0736C45.6748 14.9971 46.0417 15.8828 46.6947 16.5358L51.8817 11.3488C52.5347 10.6958 52.9015 9.81008 52.9015 8.88657C52.9015 7.96305 52.5347 7.07736 51.8817 6.42432L46.6947 11.6113Z" fill="url(#paint3_linear_8618_17909)"/>
</g>
<g clip-path="url(#clip2_8618_17909)">
<path d="M91.25 0H67.25C65.975 0 65 0.975 65 2.25V15.75C65 17.025 66.05 18 67.25 18H91.25C92.525 18 93.5 17.025 93.5 15.75V2.25C93.5 0.975 92.45 0 91.25 0Z" fill="#8B8C8E"/>
<path d="M91.25 0.75C92.075 0.75 92.75 1.425 92.75 2.25V15.75C92.75 16.575 92.075 17.25 91.25 17.25H67.25C66.425 17.25 65.75 16.575 65.75 15.75V2.25C65.75 1.425 66.425 0.75 67.25 0.75H91.25Z" fill="#B2FCE4"/>
<path d="M85.5502 4.90756L83.5252 3.70756L81.5002 2.50756C80.1502 1.75756 78.4252 2.73256 78.4252 4.30756V4.60756C78.4252 4.75756 78.5002 4.90756 78.6502 4.98256L79.6252 5.50756C79.9252 5.65756 80.2252 5.43256 80.2252 5.13256V4.53256C80.2252 4.23256 80.5252 4.00756 80.8252 4.15756L82.7002 5.20756L84.5002 6.33256C84.8002 6.48256 84.8002 6.85756 84.5002 7.00756L82.6252 8.05756L80.7502 9.25756C80.4502 9.40756 80.1502 9.18256 80.1502 8.88256V8.58256C80.1502 7.00756 78.4252 6.03256 77.0752 6.78256L75.0502 7.98256L73.0252 9.18256C71.6752 9.93256 71.6752 11.9576 73.0252 12.7076L75.0502 13.9076L77.0752 15.1076C78.4252 15.8576 80.1502 14.8826 80.1502 13.3076V13.0076C80.1502 12.8576 80.0752 12.7076 79.9252 12.6326L78.9502 12.1076C78.6502 11.9576 78.3502 12.1826 78.3502 12.4826V13.0826C78.3502 13.3826 78.0502 13.6076 77.7502 13.4576L75.8752 12.4076L74.0002 11.2826C73.7002 11.1326 73.7002 10.7576 74.0002 10.6076L75.8752 9.55756L77.7502 8.50756C78.0502 8.35756 78.3502 8.58256 78.3502 8.88256V9.18256C78.3502 10.7576 80.0752 11.7326 81.4252 10.9826L83.4502 9.78256L85.4752 8.58256C86.9002 7.68256 86.9002 5.73256 85.5502 4.90756Z" fill="black"/>
</g>
<g clip-path="url(#clip3_8618_17909)">
<path d="M123.75 0H99.75C98.475 0 97.5 0.975 97.5 2.25V15.75C97.5 17.025 98.55 18 99.75 18H123.75C125.025 18 126 17.025 126 15.75V2.25C126 0.975 124.95 0 123.75 0Z" fill="#8B8C8E"/>
<path d="M123.75 0.75C124.575 0.75 125.25 1.425 125.25 2.25V15.75C125.25 16.575 124.575 17.25 123.75 17.25H99.75C98.925 17.25 98.25 16.575 98.25 15.75V2.25C98.25 1.425 98.925 0.75 99.75 0.75H123.75Z" fill="#006FCF"/>
<path d="M104.228 7.701L104.809 9.108H103.652L104.228 7.701ZM116.285 7.7595H114.052V8.37975H116.248V9.309H114.056V10.0005H116.289V10.5547L117.847 8.871L116.289 7.116L116.285 7.7595ZM105.737 6.0045H108.733L109.399 7.45575L110.015 6H117.793L118.601 6.8925L119.438 6H123.01L120.37 8.889L122.983 11.76H119.357L118.549 10.8675L117.705 11.76H105.023L104.652 10.8675H103.805L103.433 11.76H100.5L102.964 6H105.537L105.737 6.0045ZM112.234 6.813H110.555L109.43 9.465L108.211 6.813H106.545V10.4205L105 6.813H103.505L101.719 10.947H102.885L103.255 10.0545H105.203L105.573 10.947H107.613V7.99575L108.926 10.9515H109.819L111.124 8.00475V10.9522H112.217L112.235 6.81225L112.234 6.813ZM119.24 8.889L121.138 6.813H119.771L118.57 8.1075L117.41 6.813H112.989V10.9515H117.347L118.557 9.648L119.718 10.9515H121.124L119.24 8.889H119.24Z" fill="white"/>
</g>
<g clip-path="url(#clip4_8618_17909)">
<path d="M156.25 0H132.25C130.975 0 130 0.975 130 2.25V15.75C130 17.025 131.05 18 132.25 18H156.25C157.525 18 158.5 17.025 158.5 15.75V2.25C158.5 0.975 157.45 0 156.25 0Z" fill="#8B8C8E"/>
<path d="M156.25 0.75C157.075 0.75 157.75 1.425 157.75 2.25V15.75C157.75 16.575 157.075 17.25 156.25 17.25H132.25C131.425 17.25 130.75 16.575 130.75 15.75V2.25C130.75 1.425 131.425 0.75 132.25 0.75H156.25Z" fill="white"/>
<path d="M157.75 9.75C157.75 9.75 150.333 14.928 136.75 17.25H155.5C156.25 17.25 156.953 17.297 157.375 16.875C157.797 16.453 157.75 15.75 157.75 15V9.75Z" fill="#F48120"/>
<path d="M132.678 5.37027H131.5V9.49527H132.678C133.3 9.49527 133.75 9.34527 134.148 9.02277C134.62 8.63277 134.898 8.04777 134.898 7.44027C134.89 6.21777 133.983 5.37027 132.678 5.37027ZM133.622 8.47527C133.367 8.70027 133.045 8.80527 132.52 8.80527H132.302V6.07527H132.52C133.037 6.07527 133.352 6.16527 133.622 6.40527C133.9 6.65277 134.065 7.03527 134.065 7.43277C134.065 7.83027 133.9 8.22777 133.622 8.47527ZM135.265 5.37027H136.068V9.49527H135.265V5.37027ZM138.033 6.95277C137.553 6.77277 137.41 6.65277 137.41 6.43527C137.41 6.17277 137.665 5.97777 138.01 5.97777C138.25 5.97777 138.452 6.07527 138.655 6.31527L139.075 5.76777C138.73 5.46777 138.317 5.31027 137.86 5.31027C137.132 5.31027 136.57 5.82027 136.57 6.49527C136.57 7.06527 136.832 7.35777 137.582 7.62777C137.897 7.74027 138.055 7.81527 138.138 7.86027C138.295 7.96527 138.378 8.11527 138.378 8.28777C138.378 8.62527 138.115 8.87277 137.755 8.87277C137.372 8.87277 137.065 8.67777 136.878 8.32527L136.36 8.82777C136.727 9.37527 137.178 9.61527 137.785 9.61527C138.618 9.61527 139.21 9.06027 139.21 8.25777C139.225 7.59027 138.948 7.29027 138.033 6.95277ZM139.472 7.44027C139.472 8.65527 140.425 9.59277 141.648 9.59277C141.992 9.59277 142.293 9.52527 142.653 9.35277V8.40777C142.33 8.73027 142.045 8.85777 141.685 8.85777C140.875 8.85777 140.297 8.27277 140.297 7.43277C140.297 6.63777 140.89 6.01527 141.648 6.01527C142.03 6.01527 142.323 6.15027 142.653 6.48027V5.53527C142.3 5.35527 142.007 5.28027 141.663 5.28027C140.455 5.28027 139.472 6.24027 139.472 7.44027ZM149.042 8.14527L147.94 5.37027H147.062L148.81 9.60027H149.245L151.023 5.37027H150.153L149.042 8.14527ZM151.39 9.49527H153.67V8.79777H152.193V7.68777H153.618V6.99027H152.193V6.07527H153.67V5.37027H151.39V9.49527ZM156.858 6.59277C156.858 5.82027 156.325 5.37777 155.395 5.37777H154.202V9.50277H155.005V7.84527H155.11L156.22 9.50277H157.21L155.912 7.76277C156.52 7.63527 156.858 7.22277 156.858 6.59277ZM155.238 7.27527H155.005V6.02277H155.252C155.755 6.02277 156.025 6.23277 156.025 6.63777C156.025 7.05027 155.755 7.27527 155.238 7.27527Z" fill="#212428"/>
<path d="M145.12 9.645C145.409 9.645 145.695 9.58816 145.961 9.47772C146.228 9.36729 146.47 9.20542 146.674 9.00137C146.878 8.79731 147.04 8.55506 147.151 8.28845C147.261 8.02183 147.318 7.73608 147.318 7.4475C147.318 7.15892 147.261 6.87317 147.151 6.60655C147.04 6.33994 146.878 6.09769 146.674 5.89363C146.47 5.68958 146.228 5.52771 145.961 5.41727C145.695 5.30684 145.409 5.25 145.12 5.25C144.538 5.25 143.979 5.48152 143.566 5.89363C143.154 6.30574 142.923 6.86469 142.923 7.4475C142.923 8.03031 143.154 8.58926 143.566 9.00137C143.979 9.41348 144.538 9.645 145.12 9.645Z" fill="url(#paint4_linear_8618_17909)"/>
<path opacity="0.65" d="M145.12 9.645C145.409 9.645 145.695 9.58816 145.961 9.47772C146.228 9.36729 146.47 9.20542 146.674 9.00137C146.878 8.79731 147.04 8.55506 147.151 8.28845C147.261 8.02183 147.318 7.73608 147.318 7.4475C147.318 7.15892 147.261 6.87317 147.151 6.60655C147.04 6.33994 146.878 6.09769 146.674 5.89363C146.47 5.68958 146.228 5.52771 145.961 5.41727C145.695 5.30684 145.409 5.25 145.12 5.25C144.538 5.25 143.979 5.48152 143.566 5.89363C143.154 6.30574 142.923 6.86469 142.923 7.4475C142.923 8.03031 143.154 8.58926 143.566 9.00137C143.979 9.41348 144.538 9.645 145.12 9.645Z" fill="url(#paint5_linear_8618_17909)"/>
<path d="M157.428 5.6291C157.428 5.5541 157.375 5.5166 157.293 5.5166H157.173V5.8766H157.263V5.7341L157.368 5.8766H157.473L157.353 5.7266C157.398 5.7191 157.428 5.6816 157.428 5.6291ZM157.278 5.6816H157.263V5.5841H157.278C157.323 5.5841 157.345 5.5991 157.345 5.6291C157.345 5.6666 157.323 5.6816 157.278 5.6816Z" fill="#212428"/>
<path d="M157.308 5.38184C157.136 5.38184 156.993 5.52434 156.993 5.69684C156.993 5.86934 157.136 6.01184 157.308 6.01184C157.481 6.01184 157.623 5.86934 157.623 5.69684C157.623 5.52434 157.481 5.38184 157.308 5.38184ZM157.308 5.95934C157.173 5.95934 157.053 5.84684 157.053 5.69684C157.053 5.55434 157.166 5.43434 157.308 5.43434C157.443 5.43434 157.556 5.55434 157.556 5.69684C157.556 5.83934 157.443 5.95934 157.308 5.95934Z" fill="#212428"/>
</g>
<g clip-path="url(#clip5_8618_17909)">
<path d="M188.75 0H164.75C163.475 0 162.5 0.975 162.5 2.25V15.75C162.5 17.025 163.55 18 164.75 18H188.75C190.025 18 191 17.025 191 15.75V2.25C191 0.975 189.95 0 188.75 0Z" fill="#8B8C8E"/>
<path d="M188.75 0.75C189.575 0.75 190.25 1.425 190.25 2.25V15.75C190.25 16.575 189.575 17.25 188.75 17.25H164.75C163.925 17.25 163.25 16.575 163.25 15.75V2.25C163.25 1.425 163.925 0.75 164.75 0.75H188.75Z" fill="white"/>
<path d="M173.75 14.25C176.649 14.25 179 11.8995 179 9C179 6.10051 176.649 3.75 173.75 3.75C170.851 3.75 168.5 6.10051 168.5 9C168.5 11.8995 170.851 14.25 173.75 14.25Z" fill="#EB001B"/>
<path d="M179.75 14.25C182.649 14.25 185 11.8995 185 9C185 6.10051 182.649 3.75 179.75 3.75C176.851 3.75 174.5 6.10051 174.5 9C174.5 11.8995 176.851 14.25 179.75 14.25Z" fill="#F79E1B"/>
<path d="M179 9.0001C179 7.2001 178.1 5.6251 176.75 4.7251C175.4 5.7001 174.5 7.2751 174.5 9.0001C174.5 10.7251 175.4 12.3751 176.75 13.2751C178.1 12.3751 179 10.8001 179 9.0001Z" fill="#FF5F00"/>
</g>
<g clip-path="url(#clip6_8618_17909)">
<path d="M221.25 0H197.25C195.975 0 195 0.975 195 2.25V15.75C195 17.025 196.05 18 197.25 18H221.25C222.525 18 223.5 17.025 223.5 15.75V2.25C223.5 0.975 222.45 0 221.25 0Z" fill="#8B8C8E"/>
<path d="M221.25 0.75C222.075 0.75 222.75 1.425 222.75 2.25V15.75C222.75 16.575 222.075 17.25 221.25 17.25H197.25C196.425 17.25 195.75 16.575 195.75 15.75V2.25C195.75 1.425 196.425 0.75 197.25 0.75H221.25Z" fill="white"/>
<path d="M216.225 7.575H216C215.7 8.325 215.475 8.7 215.25 9.825H216.675C216.45 8.7 216.45 8.175 216.225 7.575ZM218.4 12H217.125C217.05 12 217.05 12 216.975 11.925L216.825 11.25L216.75 11.1H214.95C214.875 11.1 214.8 11.1 214.8 11.25L214.575 11.925C214.575 12 214.5 12 214.5 12H212.925L213.075 11.625L215.25 6.525C215.25 6.15 215.475 6 215.85 6H216.975C217.05 6 217.125 6 217.125 6.15L218.175 11.025C218.25 11.325 218.325 11.55 218.325 11.85C218.4 11.925 218.4 11.925 218.4 12ZM208.35 11.775L208.65 10.425C208.725 10.425 208.8 10.5 208.8 10.5C209.325 10.725 209.85 10.875 210.375 10.8C210.525 10.8 210.75 10.725 210.9 10.65C211.275 10.5 211.275 10.125 210.975 9.825C210.825 9.675 210.6 9.6 210.375 9.45C210.075 9.3 209.775 9.15 209.55 8.925C208.65 8.175 208.95 7.125 209.475 6.6C209.925 6.3 210.15 6 210.75 6C211.65 6 212.625 6 213.075 6.15H213.15C213.075 6.6 213 6.975 212.85 7.425C212.475 7.275 212.1 7.125 211.725 7.125C211.5 7.125 211.275 7.125 211.05 7.2C210.9 7.2 210.825 7.275 210.75 7.35C210.6 7.5 210.6 7.725 210.75 7.875L211.125 8.175C211.425 8.325 211.725 8.475 211.95 8.625C212.325 8.85 212.7 9.225 212.775 9.675C212.925 10.35 212.7 10.95 212.1 11.4C211.725 11.7 211.575 11.85 211.05 11.85C210 11.85 209.175 11.925 208.5 11.7C208.425 11.85 208.425 11.85 208.35 11.775ZM205.725 12C205.8 11.475 205.8 11.475 205.875 11.25C206.25 9.6 206.625 7.875 206.925 6.225C207 6.075 207 6 207.15 6H208.5C208.35 6.9 208.2 7.575 207.975 8.4C207.75 9.525 207.525 10.65 207.225 11.775C207.225 11.925 207.15 11.925 207 11.925L205.725 12ZM198.75 6.15C198.75 6.075 198.9 6 198.975 6H201.525C201.9 6 202.2 6.225 202.275 6.6L202.95 9.9C202.95 9.975 202.95 9.975 203.025 10.05C203.025 9.975 203.1 9.975 203.1 9.975L204.675 6.15C204.6 6.075 204.675 6 204.75 6H206.325C206.325 6.075 206.325 6.075 206.25 6.15L203.925 11.625C203.85 11.775 203.85 11.85 203.775 11.925C203.7 12 203.55 11.925 203.4 11.925H202.275C202.2 11.925 202.125 11.925 202.125 11.775L200.925 7.125C200.775 6.975 200.55 6.75 200.25 6.675C199.8 6.45 198.975 6.3 198.825 6.3L198.75 6.15Z" fill="#142688"/>
</g>
<g clip-path="url(#clip7_8618_17909)">
<path d="M253.75 0H229.75C228.475 0 227.5 0.975 227.5 2.25V15.75C227.5 17.025 228.55 18 229.75 18H253.75C255.025 18 256 17.025 256 15.75V2.25C256 0.975 254.95 0 253.75 0Z" fill="#8B8C8E"/>
<path d="M253.75 0.75C254.575 0.75 255.25 1.425 255.25 2.25V15.75C255.25 16.575 254.575 17.25 253.75 17.25H229.75C228.925 17.25 228.25 16.575 228.25 15.75V2.25C228.25 1.425 228.925 0.75 229.75 0.75H253.75Z" fill="white"/>
<path d="M245.425 6.225C245.575 5.475 245.425 4.95 244.975 4.5C244.525 3.975 243.7 3.75 242.65 3.75H239.575C239.35 3.75 239.2 3.9 239.125 4.125L238 11.7C238 11.85 238.075 12 238.225 12H240.25L240.55 9.45L241.9 7.8L245.425 6.225Z" fill="#003087"/>
<path d="M245.425 6.2251L245.275 6.3751C244.9 8.4751 243.625 9.2251 241.825 9.2251H241C240.775 9.2251 240.625 9.3751 240.55 9.6001L240.1 12.5251L239.95 13.2751C239.95 13.4251 240.025 13.5751 240.175 13.5751H241.75C241.975 13.5751 242.125 13.4251 242.125 13.2751V13.2001L242.425 11.4001V11.3251C242.425 11.1751 242.65 11.0251 242.8 11.0251H243.025C244.6 11.0251 245.8 10.4251 246.1 8.6251C246.25 7.8751 246.175 7.2751 245.8 6.8251C245.725 6.4501 245.575 6.3001 245.425 6.2251Z" fill="#3086C8"/>
<path d="M244.975 6.0751C244.9 6.0001 244.825 6.0001 244.75 6.0001C244.675 6.0001 244.6 6.0001 244.525 5.9251C244.3 5.8501 244 5.8501 243.7 5.8501H241.45C241.375 5.8501 241.3 5.8501 241.3 5.9251C241.15 6.0001 241.075 6.0751 241.075 6.2251L240.55 9.5251V9.6001C240.55 9.3751 240.775 9.2251 241 9.2251H241.975C243.85 9.2251 245.05 8.4751 245.425 6.3751V6.2251C245.35 6.1501 245.2 6.0751 245.05 6.0751H244.975Z" fill="#012169"/>
</g>
<defs>
<linearGradient id="paint0_linear_8618_17909" x1="45.9979" y1="11.7579" x2="43.8095" y2="9.14986" gradientUnits="userSpaceOnUse">
<stop stop-color="#CE5DCB"/>
<stop offset="0.2095" stop-color="#C558CC"/>
<stop offset="0.5525" stop-color="#AC4ACF"/>
<stop offset="0.9845" stop-color="#8534D4"/>
<stop offset="1" stop-color="#8333D4"/>
</linearGradient>
<linearGradient id="paint1_linear_8618_17909" x1="46.6298" y1="8.44247" x2="51.8809" y2="8.44247" gradientUnits="userSpaceOnUse">
<stop offset="0.0237" stop-color="#FF5667"/>
<stop offset="0.6592" stop-color="#FC8B82"/>
<stop offset="1" stop-color="#FBA28E"/>
</linearGradient>
<linearGradient id="paint2_linear_8618_17909" x1="40.7498" y1="6.55575" x2="47.9767" y2="6.55575" gradientUnits="userSpaceOnUse">
<stop stop-color="#00B874"/>
<stop offset="0.5126" stop-color="#29D3A2"/>
<stop offset="0.6817" stop-color="#53DFB6"/>
<stop offset="1" stop-color="#9FF4D9"/>
</linearGradient>
<linearGradient id="paint3_linear_8618_17909" x1="45.6746" y1="11.48" x2="52.9014" y2="11.48" gradientUnits="userSpaceOnUse">
<stop stop-color="#FCD77E"/>
<stop offset="0.5241" stop-color="#FEA500"/>
<stop offset="1" stop-color="#FF5B00"/>
</linearGradient>
<linearGradient id="paint4_linear_8618_17909" x1="146.243" y1="9.20625" x2="144.724" y2="6.828" gradientUnits="userSpaceOnUse">
<stop stop-color="#F89F20"/>
<stop offset="0.25" stop-color="#F79A20"/>
<stop offset="0.533" stop-color="#F68D20"/>
<stop offset="0.62" stop-color="#F58720"/>
<stop offset="0.723" stop-color="#F48120"/>
<stop offset="1" stop-color="#F37521"/>
</linearGradient>
<linearGradient id="paint5_linear_8618_17909" x1="146.004" y1="9.174" x2="143.784" y2="4.8345" gradientUnits="userSpaceOnUse">
<stop stop-color="#F58720"/>
<stop offset="0.359" stop-color="#E16F27"/>
<stop offset="0.703" stop-color="#D4602C"/>
<stop offset="0.982" stop-color="#D05B2E"/>
</linearGradient>
<clipPath id="clip0_8618_17909">
<rect width="28.5" height="18" fill="white"/>
</clipPath>
<clipPath id="clip1_8618_17909">
<rect width="28.5" height="18" fill="white" transform="translate(32.5)"/>
</clipPath>
<clipPath id="clip2_8618_17909">
<rect width="28.5" height="18" fill="white" transform="translate(65)"/>
</clipPath>
<clipPath id="clip3_8618_17909">
<rect x="97.5" width="28.5" height="18" rx="2" fill="white"/>
</clipPath>
<clipPath id="clip4_8618_17909">
<rect x="130" width="28.5" height="18" rx="2" fill="white"/>
</clipPath>
<clipPath id="clip5_8618_17909">
<rect x="162.5" width="28.5" height="18" rx="2" fill="white"/>
</clipPath>
<clipPath id="clip6_8618_17909">
<rect x="195" width="28.5" height="18" rx="2" fill="white"/>
</clipPath>
<clipPath id="clip7_8618_17909">
<rect x="227.5" width="28.5" height="18" rx="2" fill="white"/>
</clipPath>
</defs>
</svg>
