<svg width="45" height="10" viewBox="0 0 45 10" fill="none" xmlns="http://www.w3.org/2000/svg">
<path fill-rule="evenodd" clip-rule="evenodd" d="M36.9426 4.69156C37.9587 4.60957 38.8083 5.34955 38.8959 6.25906C38.9959 7.29514 38.1785 8.08409 37.2437 8.16221C36.2095 8.24848 35.3633 7.51086 35.2726 6.59331C35.1694 5.55081 35.995 4.76818 36.9426 4.69156ZM40.8989 9.81127C40.935 9.63906 40.9096 3.20453 40.9095 3.04817H38.9065L38.9088 3.4659C38.7816 3.39925 38.6636 3.31469 38.5225 3.24096C38.1014 3.02085 37.5894 2.88443 37.1004 2.85935C34.2397 2.71318 32.4044 5.89663 33.9195 8.32157C34.2241 8.80917 34.6501 9.24062 35.1525 9.52268C36.0355 10.0186 37.1025 10.1619 38.1173 9.78888C38.6237 9.60262 38.7633 9.44895 38.9101 9.38776L38.9165 9.81256L40.8989 9.81127Z" fill="#212428"/>
<path fill-rule="evenodd" clip-rule="evenodd" d="M14.0799 6.61427C13.9723 5.57016 14.7802 4.78132 15.7105 4.69483C16.7451 4.59871 17.6007 5.32979 17.6994 6.23919C17.8128 7.28405 16.996 8.07322 16.0677 8.16131C15.0295 8.2598 14.1731 7.51918 14.0799 6.61427ZM19.6967 9.81316C19.743 9.66152 19.7128 3.38892 19.7128 3.05338H17.716L17.7126 3.46875C17.5975 3.41217 17.4647 3.31197 17.3266 3.24006C15.0777 2.07068 12.1862 3.67548 12.1855 6.42705C12.185 8.55332 13.9649 10.0964 15.9079 9.99534C16.2614 9.97691 16.6132 9.90339 16.9205 9.79108C17.3086 9.64941 17.4099 9.55392 17.7152 9.38728L17.7214 9.81359L19.6967 9.81316Z" fill="#212428"/>
<path fill-rule="evenodd" clip-rule="evenodd" d="M30.6585 6.11764C30.7206 6.25299 30.6844 9.36678 30.6839 9.80134H32.6589L32.6495 5.30243C32.6939 5.08199 32.546 4.64122 32.464 4.45518C32.1592 3.76332 31.6002 3.26125 30.8111 3.00888C30.0269 2.75811 28.9639 2.80419 28.2712 3.28965C27.8907 3.55628 27.8838 3.66677 27.743 3.78626L27.7367 3.04306L25.7422 3.04285L25.7479 9.81323L27.7628 9.8127C27.791 9.43666 27.7668 7.96345 27.7668 7.46674C27.7668 6.76117 27.6676 5.89763 28.0034 5.35173C28.2759 4.90838 28.9311 4.59482 29.6798 4.7635C30.2734 4.89713 30.6688 5.40713 30.6585 6.11764Z" fill="#212428"/>
<path fill-rule="evenodd" clip-rule="evenodd" d="M5.5389 5.58201C5.92084 5.15121 6.07516 5.00439 6.43202 4.5005C7.24691 3.35008 7.88272 1.50715 7.8091 0.0246283L5.63771 0.0244141C5.60653 0.360485 5.60963 0.643616 5.5538 0.981186C5.33207 2.32429 4.66347 3.4492 3.68827 4.3151C3.41799 4.55494 2.91764 4.90205 2.59454 5.15592L2.52734 5.22075L5.66289 9.53909C5.72634 9.62782 5.8096 9.73177 5.85729 9.81686L8.60405 9.81333C8.57201 9.74828 8.46795 9.61754 8.41908 9.54991L7.07115 7.69402C6.84182 7.38603 5.74134 5.90008 5.5389 5.58201Z" fill="#212428"/>
<path fill-rule="evenodd" clip-rule="evenodd" d="M0.0362869 9.81723L2.22932 9.81284L2.24068 0.0283203H0.03125L0.0362869 9.81723Z" fill="#212428"/>
<path fill-rule="evenodd" clip-rule="evenodd" d="M9.26953 9.80699H11.3455L11.3408 0.0322266H9.26975L9.26953 9.80699Z" fill="#212428"/>
<path fill-rule="evenodd" clip-rule="evenodd" d="M22.8353 9.81335C22.8592 9.56355 22.8404 9.22416 22.8404 8.96471C22.8404 8.57088 22.8213 6.68327 22.8555 6.4475C22.9512 5.78855 23.4977 5.33749 24.0997 5.13141C24.3684 5.03957 24.525 5.04921 24.8048 5.00442L24.8004 3.04811C24.4253 3.01586 23.9353 3.16396 23.6385 3.29759C23.2181 3.48695 23.1115 3.6522 22.8364 3.91111L22.8289 3.04297L20.7793 3.04447L20.7829 9.81325L22.8353 9.81335Z" fill="#212428"/>
<path fill-rule="evenodd" clip-rule="evenodd" d="M41.7979 8.79862C41.8541 9.45533 42.4305 10.0072 43.154 9.95193C43.8154 9.90135 44.375 9.30594 44.3086 8.56885C44.2494 7.91268 43.6696 7.34974 42.9377 7.41768C42.2857 7.47823 41.7347 8.06046 41.7979 8.79862Z" fill="#212428"/>
<path fill-rule="evenodd" clip-rule="evenodd" d="M0.0354205 9.81758L0.0303837 0.0286701H2.23981L2.22845 9.81319C2.25814 9.7849 2.24613 9.80719 2.25471 9.7551L2.25428 2.47408C2.25428 1.8986 2.28064 0.502555 2.25128 0.0286701C2.16115 -0.00605148 0.175807 -0.0100173 0.0155948 0.0210606C-0.0163405 0.382315 0.010665 0.871632 0.010665 1.24671L0.00937936 9.69381C0.00937936 9.71567 0.00937911 9.7536 0.0135586 9.77397C0.0233106 9.82112 0.0169881 9.79293 0.0354205 9.81758Z" fill="#78575F"/>
<path fill-rule="evenodd" clip-rule="evenodd" d="M9.27015 0.0315978H11.3412L11.3459 9.80637H9.26993L9.27015 0.0315978ZM9.25429 9.81269C9.39521 9.84173 11.2616 9.84001 11.368 9.80872L11.3635 0.0270969C11.2657 -0.000766095 9.39103 -0.00290904 9.25 0.0234536L9.25429 9.81269Z" fill="#705058"/>
<path fill-rule="evenodd" clip-rule="evenodd" d="M30.6562 6.1177L30.6626 9.81876L32.6712 9.81394C32.6983 9.47454 32.6755 8.01217 32.6755 7.55007C32.6755 7.11969 32.6974 5.82021 32.6732 5.40601L32.6473 5.30249L32.6566 9.8014H30.6816C30.6822 9.36684 30.7183 6.25305 30.6562 6.1177Z" fill="#212428"/>
<path fill-rule="evenodd" clip-rule="evenodd" d="M40.9006 9.8129C40.9501 9.79072 40.9332 9.80058 40.9317 9.63136C40.9233 8.66612 40.9592 3.30946 40.9254 3.04594C40.8134 3.00447 39.4033 3.02858 39.0412 3.0273C39.0324 3.0273 38.9828 3.02655 38.9775 3.02719L38.9235 3.04144C38.9195 3.04284 38.9132 3.04691 38.9082 3.0498H40.9112C40.9113 3.20616 40.9367 9.64068 40.9006 9.8129Z" fill="#8D646E"/>
<path fill-rule="evenodd" clip-rule="evenodd" d="M19.6974 9.81308C19.7481 9.79346 19.7275 9.83044 19.7371 9.73634C19.7387 9.72059 19.7349 9.65233 19.7347 9.63068C19.7248 8.67434 19.7605 3.28585 19.7279 3.04376C19.5748 3.01354 18.23 3.03454 17.8419 3.03326L17.7168 3.0533H19.7136C19.7136 3.38883 19.7437 9.66144 19.6974 9.81308Z" fill="#6C4F55"/>
</svg>
