<svg width="159" height="18" viewBox="0 0 159 18" fill="none" xmlns="http://www.w3.org/2000/svg">
<g clip-path="url(#clip0_5334_7524)">
<path d="M26.25 0H2.25C0.975 0 0 0.975 0 2.25V15.75C0 17.025 1.05 18 2.25 18H26.25C27.525 18 28.5 17.025 28.5 15.75V2.25C28.5 0.975 27.45 0 26.25 0Z" fill="#8B8C8E"/>
<path d="M26.25 0.75C27.075 0.75 27.75 1.425 27.75 2.25V15.75C27.75 16.575 27.075 17.25 26.25 17.25H2.25C1.425 17.25 0.75 16.575 0.75 15.75V2.25C0.75 1.425 1.425 0.75 2.25 0.75H26.25Z" fill="#006FCF"/>
<path d="M6.72825 7.701L7.30875 9.108H6.15225L6.72825 7.701ZM18.7845 7.7595H16.5518V8.37975H18.7485V9.309H16.5563V10.0005H18.789V10.5547L20.3468 8.871L18.789 7.116L18.7845 7.7595ZM8.23725 6.0045H11.2335L11.8988 7.45575L12.5153 6H20.2927L21.1012 6.8925L21.9375 6H25.5098L22.8705 8.889L25.4827 11.76H21.8573L21.0487 10.8675L20.205 11.76H7.5225L7.152 10.8675H6.3045L5.93325 11.76H3L5.4645 6H8.037L8.23725 6.0045ZM14.7345 6.813H13.0553L11.9303 9.465L10.7115 6.813H9.045V10.4205L7.5 6.813H6.00525L4.21875 10.947H5.385L5.7555 10.0545H7.7025L8.073 10.947H10.113V7.99575L11.4262 10.9515H12.3187L13.6238 8.00475V10.9522H14.7172L14.7352 6.81225L14.7345 6.813ZM21.7395 8.889L23.6378 6.813H22.2712L21.0705 8.1075L19.9095 6.813H15.489V10.9515H19.8465L21.057 9.648L22.218 10.9515H23.6243L21.7402 8.889H21.7395Z" fill="white"/>
</g>
<g clip-path="url(#clip1_5334_7524)">
<path d="M58.75 0H34.75C33.475 0 32.5 0.975 32.5 2.25V15.75C32.5 17.025 33.55 18 34.75 18H58.75C60.025 18 61 17.025 61 15.75V2.25C61 0.975 59.95 0 58.75 0Z" fill="#8B8C8E"/>
<path d="M58.75 0.75C59.575 0.75 60.25 1.425 60.25 2.25V15.75C60.25 16.575 59.575 17.25 58.75 17.25H34.75C33.925 17.25 33.25 16.575 33.25 15.75V2.25C33.25 1.425 33.925 0.75 34.75 0.75H58.75Z" fill="white"/>
<path d="M60.25 9.75C60.25 9.75 52.8325 14.928 39.25 17.25H58C58.75 17.25 59.453 17.297 59.875 16.875C60.297 16.453 60.25 15.75 60.25 15V9.75Z" fill="#F48120"/>
<path d="M35.1775 5.3693H34V9.4943H35.1775C35.8 9.4943 36.25 9.3443 36.6475 9.0218C37.12 8.6318 37.3975 8.0468 37.3975 7.4393C37.39 6.2168 36.4825 5.3693 35.1775 5.3693ZM36.1225 8.4743C35.8675 8.6993 35.545 8.8043 35.02 8.8043H34.8025V6.0743H35.02C35.5375 6.0743 35.8525 6.1643 36.1225 6.4043C36.4 6.6518 36.565 7.0343 36.565 7.4318C36.565 7.8293 36.4 8.2268 36.1225 8.4743ZM37.765 5.3693H38.5675V9.4943H37.765V5.3693ZM40.5325 6.9518C40.0525 6.7718 39.91 6.6518 39.91 6.4343C39.91 6.1718 40.165 5.9768 40.51 5.9768C40.75 5.9768 40.9525 6.0743 41.155 6.3143L41.575 5.7668C41.23 5.4668 40.8175 5.3093 40.36 5.3093C39.6325 5.3093 39.07 5.8193 39.07 6.4943C39.07 7.0643 39.3325 7.3568 40.0825 7.6268C40.3975 7.7393 40.555 7.8143 40.6375 7.8593C40.795 7.9643 40.8775 8.1143 40.8775 8.2868C40.8775 8.6243 40.615 8.8718 40.255 8.8718C39.8725 8.8718 39.565 8.6768 39.3775 8.3243L38.86 8.8268C39.2275 9.3743 39.6775 9.6143 40.285 9.6143C41.1175 9.6143 41.71 9.0593 41.71 8.2568C41.725 7.5893 41.4475 7.2893 40.5325 6.9518ZM41.9725 7.4393C41.9725 8.6543 42.925 9.5918 44.1475 9.5918C44.4925 9.5918 44.7925 9.5243 45.1525 9.3518V8.4068C44.83 8.7293 44.545 8.8568 44.185 8.8568C43.375 8.8568 42.7975 8.2718 42.7975 7.4318C42.7975 6.6368 43.39 6.0143 44.1475 6.0143C44.53 6.0143 44.8225 6.1493 45.1525 6.4793V5.5343C44.8 5.3543 44.5075 5.2793 44.1625 5.2793C42.955 5.2793 41.9725 6.2393 41.9725 7.4393ZM51.5425 8.1443L50.44 5.3693H49.5625L51.31 9.5993H51.745L53.5225 5.3693H52.6525L51.5425 8.1443ZM53.89 9.4943H56.17V8.7968H54.6925V7.6868H56.1175V6.9893H54.6925V6.0743H56.17V5.3693H53.89V9.4943ZM59.3575 6.5918C59.3575 5.8193 58.825 5.3768 57.895 5.3768H56.7025V9.5018H57.505V7.8443H57.61L58.72 9.5018H59.71L58.4125 7.7618C59.02 7.6343 59.3575 7.2218 59.3575 6.5918ZM57.7375 7.2743H57.505V6.0218H57.7525C58.255 6.0218 58.525 6.2318 58.525 6.6368C58.525 7.0493 58.255 7.2743 57.7375 7.2743Z" fill="#212428"/>
<path d="M47.6199 9.645C47.9084 9.645 48.1942 9.58816 48.4608 9.47772C48.7274 9.36729 48.9697 9.20542 49.1737 9.00137C49.3778 8.79731 49.5397 8.55506 49.6501 8.28845C49.7605 8.02183 49.8174 7.73608 49.8174 7.4475C49.8174 7.15892 49.7605 6.87317 49.6501 6.60655C49.5397 6.33994 49.3778 6.09769 49.1737 5.89363C48.9697 5.68958 48.7274 5.52771 48.4608 5.41727C48.1942 5.30684 47.9084 5.25 47.6199 5.25C47.0371 5.25 46.4781 5.48152 46.066 5.89363C45.6539 6.30574 45.4224 6.86469 45.4224 7.4475C45.4224 8.03031 45.6539 8.58926 46.066 9.00137C46.4781 9.41348 47.0371 9.645 47.6199 9.645Z" fill="url(#paint0_linear_5334_7524)"/>
<path opacity="0.65" d="M47.6199 9.645C47.9084 9.645 48.1942 9.58816 48.4608 9.47772C48.7274 9.36729 48.9697 9.20542 49.1737 9.00137C49.3778 8.79731 49.5397 8.55506 49.6501 8.28845C49.7605 8.02183 49.8174 7.73608 49.8174 7.4475C49.8174 7.15892 49.7605 6.87317 49.6501 6.60655C49.5397 6.33994 49.3778 6.09769 49.1737 5.89363C48.9697 5.68958 48.7274 5.52771 48.4608 5.41727C48.1942 5.30684 47.9084 5.25 47.6199 5.25C47.0371 5.25 46.4781 5.48152 46.066 5.89363C45.6539 6.30574 45.4224 6.86469 45.4224 7.4475C45.4224 8.03031 45.6539 8.58926 46.066 9.00137C46.4781 9.41348 47.0371 9.645 47.6199 9.645Z" fill="url(#paint1_linear_5334_7524)"/>
<path d="M59.9283 5.62813C59.9283 5.55313 59.8758 5.51562 59.7933 5.51562H59.6733V5.87563H59.7633V5.73313L59.8683 5.87563H59.9733L59.8533 5.72563C59.8983 5.71813 59.9283 5.68063 59.9283 5.62813ZM59.7783 5.68063H59.7633V5.58313H59.7783C59.8233 5.58313 59.8458 5.59813 59.8458 5.62813C59.8458 5.66563 59.8233 5.68063 59.7783 5.68063Z" fill="#212428"/>
<path d="M59.8082 5.38281C59.6357 5.38281 59.4932 5.52531 59.4932 5.69781C59.4932 5.87031 59.6357 6.01281 59.8082 6.01281C59.9807 6.01281 60.1232 5.87031 60.1232 5.69781C60.1232 5.52531 59.9807 5.38281 59.8082 5.38281ZM59.8082 5.96031C59.6732 5.96031 59.5532 5.84781 59.5532 5.69781C59.5532 5.55531 59.6657 5.43531 59.8082 5.43531C59.9432 5.43531 60.0557 5.55531 60.0557 5.69781C60.0557 5.84031 59.9432 5.96031 59.8082 5.96031Z" fill="#212428"/>
</g>
<g clip-path="url(#clip2_5334_7524)">
<path d="M91.25 0H67.25C65.975 0 65 0.975 65 2.25V15.75C65 17.025 66.05 18 67.25 18H91.25C92.525 18 93.5 17.025 93.5 15.75V2.25C93.5 0.975 92.45 0 91.25 0Z" fill="#8B8C8E"/>
<path d="M91.25 0.75C92.075 0.75 92.75 1.425 92.75 2.25V15.75C92.75 16.575 92.075 17.25 91.25 17.25H67.25C66.425 17.25 65.75 16.575 65.75 15.75V2.25C65.75 1.425 66.425 0.75 67.25 0.75H91.25Z" fill="white"/>
<path d="M76.25 14.25C79.1495 14.25 81.5 11.8995 81.5 9C81.5 6.10051 79.1495 3.75 76.25 3.75C73.3505 3.75 71 6.10051 71 9C71 11.8995 73.3505 14.25 76.25 14.25Z" fill="#EB001B"/>
<path d="M82.25 14.25C85.1495 14.25 87.5 11.8995 87.5 9C87.5 6.10051 85.1495 3.75 82.25 3.75C79.3505 3.75 77 6.10051 77 9C77 11.8995 79.3505 14.25 82.25 14.25Z" fill="#F79E1B"/>
<path d="M81.5 8.99961C81.5 7.19961 80.6 5.62461 79.25 4.72461C77.9 5.69961 77 7.27461 77 8.99961C77 10.7246 77.9 12.3746 79.25 13.2746C80.6 12.3746 81.5 10.7996 81.5 8.99961Z" fill="#FF5F00"/>
</g>
<g clip-path="url(#clip3_5334_7524)">
<path d="M123.75 0H99.75C98.475 0 97.5 0.975 97.5 2.25V15.75C97.5 17.025 98.55 18 99.75 18H123.75C125.025 18 126 17.025 126 15.75V2.25C126 0.975 124.95 0 123.75 0Z" fill="#8B8C8E"/>
<path d="M123.75 0.75C124.575 0.75 125.25 1.425 125.25 2.25V15.75C125.25 16.575 124.575 17.25 123.75 17.25H99.75C98.925 17.25 98.25 16.575 98.25 15.75V2.25C98.25 1.425 98.925 0.75 99.75 0.75H123.75Z" fill="white"/>
<path d="M118.725 7.575H118.5C118.2 8.325 117.975 8.7 117.75 9.825H119.175C118.95 8.7 118.95 8.175 118.725 7.575ZM120.9 12H119.625C119.55 12 119.55 12 119.475 11.925L119.325 11.25L119.25 11.1H117.45C117.375 11.1 117.3 11.1 117.3 11.25L117.075 11.925C117.075 12 117 12 117 12H115.425L115.575 11.625L117.75 6.525C117.75 6.15 117.975 6 118.35 6H119.475C119.55 6 119.625 6 119.625 6.15L120.675 11.025C120.75 11.325 120.825 11.55 120.825 11.85C120.9 11.925 120.9 11.925 120.9 12ZM110.85 11.775L111.15 10.425C111.225 10.425 111.3 10.5 111.3 10.5C111.825 10.725 112.35 10.875 112.875 10.8C113.025 10.8 113.25 10.725 113.4 10.65C113.775 10.5 113.775 10.125 113.475 9.825C113.325 9.675 113.1 9.6 112.875 9.45C112.575 9.3 112.275 9.15 112.05 8.925C111.15 8.175 111.45 7.125 111.975 6.6C112.425 6.3 112.65 6 113.25 6C114.15 6 115.125 6 115.575 6.15H115.65C115.575 6.6 115.5 6.975 115.35 7.425C114.975 7.275 114.6 7.125 114.225 7.125C114 7.125 113.775 7.125 113.55 7.2C113.4 7.2 113.325 7.275 113.25 7.35C113.1 7.5 113.1 7.725 113.25 7.875L113.625 8.175C113.925 8.325 114.225 8.475 114.45 8.625C114.825 8.85 115.2 9.225 115.275 9.675C115.425 10.35 115.2 10.95 114.6 11.4C114.225 11.7 114.075 11.85 113.55 11.85C112.5 11.85 111.675 11.925 111 11.7C110.925 11.85 110.925 11.85 110.85 11.775ZM108.225 12C108.3 11.475 108.3 11.475 108.375 11.25C108.75 9.6 109.125 7.875 109.425 6.225C109.5 6.075 109.5 6 109.65 6H111C110.85 6.9 110.7 7.575 110.475 8.4C110.25 9.525 110.025 10.65 109.725 11.775C109.725 11.925 109.65 11.925 109.5 11.925L108.225 12ZM101.25 6.15C101.25 6.075 101.4 6 101.475 6H104.025C104.4 6 104.7 6.225 104.775 6.6L105.45 9.9C105.45 9.975 105.45 9.975 105.525 10.05C105.525 9.975 105.6 9.975 105.6 9.975L107.175 6.15C107.1 6.075 107.175 6 107.25 6H108.825C108.825 6.075 108.825 6.075 108.75 6.15L106.425 11.625C106.35 11.775 106.35 11.85 106.275 11.925C106.2 12 106.05 11.925 105.9 11.925H104.775C104.7 11.925 104.625 11.925 104.625 11.775L103.425 7.125C103.275 6.975 103.05 6.75 102.75 6.675C102.3 6.45 101.475 6.3 101.325 6.3L101.25 6.15Z" fill="#142688"/>
</g>
<g clip-path="url(#clip4_5334_7524)">
<path d="M156.25 0H132.25C130.975 0 130 0.975 130 2.25V15.75C130 17.025 131.05 18 132.25 18H156.25C157.525 18 158.5 17.025 158.5 15.75V2.25C158.5 0.975 157.45 0 156.25 0Z" fill="#8B8C8E"/>
<path d="M156.25 0.75C157.075 0.75 157.75 1.425 157.75 2.25V15.75C157.75 16.575 157.075 17.25 156.25 17.25H132.25C131.425 17.25 130.75 16.575 130.75 15.75V2.25C130.75 1.425 131.425 0.75 132.25 0.75H156.25Z" fill="white"/>
<path d="M147.925 6.225C148.075 5.475 147.925 4.95 147.475 4.5C147.025 3.975 146.2 3.75 145.15 3.75H142.075C141.85 3.75 141.7 3.9 141.625 4.125L140.5 11.7C140.5 11.85 140.575 12 140.725 12H142.75L143.05 9.45L144.4 7.8L147.925 6.225Z" fill="#003087"/>
<path d="M147.925 6.22461L147.775 6.37461C147.4 8.47461 146.125 9.22461 144.325 9.22461H143.5C143.275 9.22461 143.125 9.37461 143.05 9.59961L142.6 12.5246L142.45 13.2746C142.45 13.4246 142.525 13.5746 142.675 13.5746H144.25C144.475 13.5746 144.625 13.4246 144.625 13.2746V13.1996L144.925 11.3996V11.3246C144.925 11.1746 145.15 11.0246 145.3 11.0246H145.525C147.1 11.0246 148.3 10.4246 148.6 8.62461C148.75 7.87461 148.675 7.27461 148.3 6.82461C148.225 6.44961 148.075 6.29961 147.925 6.22461Z" fill="#3086C8"/>
<path d="M147.475 6.07461C147.4 5.99961 147.325 5.99961 147.25 5.99961C147.175 5.99961 147.1 5.99961 147.025 5.92461C146.8 5.84961 146.5 5.84961 146.2 5.84961H143.95C143.875 5.84961 143.8 5.84961 143.8 5.92461C143.65 5.99961 143.575 6.07461 143.575 6.22461L143.05 9.52461V9.59961C143.05 9.37461 143.275 9.22461 143.5 9.22461H144.475C146.35 9.22461 147.55 8.47461 147.925 6.37461V6.22461C147.85 6.14961 147.7 6.07461 147.55 6.07461H147.475Z" fill="#012169"/>
</g>
<defs>
<linearGradient id="paint0_linear_5334_7524" x1="48.7426" y1="9.20625" x2="47.2239" y2="6.828" gradientUnits="userSpaceOnUse">
<stop stop-color="#F89F20"/>
<stop offset="0.25" stop-color="#F79A20"/>
<stop offset="0.533" stop-color="#F68D20"/>
<stop offset="0.62" stop-color="#F58720"/>
<stop offset="0.723" stop-color="#F48120"/>
<stop offset="1" stop-color="#F37521"/>
</linearGradient>
<linearGradient id="paint1_linear_5334_7524" x1="48.5034" y1="9.174" x2="46.2834" y2="4.8345" gradientUnits="userSpaceOnUse">
<stop stop-color="#F58720"/>
<stop offset="0.359" stop-color="#E16F27"/>
<stop offset="0.703" stop-color="#D4602C"/>
<stop offset="0.982" stop-color="#D05B2E"/>
</linearGradient>
<clipPath id="clip0_5334_7524">
<rect width="28.5" height="18" rx="2" fill="white"/>
</clipPath>
<clipPath id="clip1_5334_7524">
<rect x="32.5" width="28.5" height="18" rx="2" fill="white"/>
</clipPath>
<clipPath id="clip2_5334_7524">
<rect x="65" width="28.5" height="18" rx="2" fill="white"/>
</clipPath>
<clipPath id="clip3_5334_7524">
<rect x="97.5" width="28.5" height="18" rx="2" fill="white"/>
</clipPath>
<clipPath id="clip4_5334_7524">
<rect x="130" width="28.5" height="18" rx="2" fill="white"/>
</clipPath>
</defs>
</svg>
