<svg width="106" height="18" viewBox="0 0 106 18" fill="none" xmlns="http://www.w3.org/2000/svg">
<g clip-path="url(#clip0_5334_7536)">
<path d="M26.25 0H2.25C0.975 0 0 0.975 0 2.25V15.75C0 17.025 1.05 18 2.25 18H26.25C27.525 18 28.5 17.025 28.5 15.75V2.25C28.5 0.975 27.45 0 26.25 0Z" fill="#8B8C8E"/>
<path d="M26.25 0.75C27.075 0.75 27.75 1.425 27.75 2.25V15.75C27.75 16.575 27.075 17.25 26.25 17.25H2.25C1.425 17.25 0.75 16.575 0.75 15.75V2.25C0.75 1.425 1.425 0.75 2.25 0.75H26.25Z" fill="#FFB3C7"/>
<path d="M25.5877 10.638C25.2225 10.638 24.9263 10.938 24.9263 11.307C24.9263 11.6768 25.2225 11.9767 25.5877 11.9767C25.9538 11.9767 26.25 11.6768 26.25 11.307C26.2508 11.1305 26.1815 10.9609 26.0573 10.8355C25.9331 10.71 25.7643 10.639 25.5877 10.638ZM23.4105 10.1205C23.4105 9.6135 22.983 9.20325 22.455 9.20325C21.927 9.20325 21.4995 9.6135 21.4995 10.1198C21.4995 10.626 21.927 11.037 22.455 11.037C22.983 11.037 23.4105 10.626 23.4105 10.1198V10.1205ZM23.4142 8.3385H24.4688V11.901H23.4142V11.6737C23.1071 11.8864 22.7423 12.0002 22.3688 12C21.342 12 20.5103 11.1585 20.5103 10.1198C20.5103 9.08175 21.3428 8.24025 22.3688 8.24025C22.7565 8.24025 23.1157 8.36025 23.4142 8.5665V8.3385ZM14.9745 8.80275V8.3385H13.8945V11.901H14.9767V10.2383C14.9767 9.6765 15.5782 9.37575 15.996 9.37575H16.008V8.33925C15.5805 8.33925 15.186 8.5245 14.9745 8.80275ZM12.285 10.1198C12.285 9.6135 11.8575 9.20325 11.3295 9.20325C10.8022 9.20325 10.374 9.6135 10.374 10.1198C10.374 10.626 10.8015 11.037 11.3295 11.037C11.8575 11.037 12.285 10.626 12.285 10.1198ZM12.2887 8.3385H13.3433V11.901H12.2887V11.6737C11.9814 11.8866 11.6163 12.0004 11.2425 12C10.2165 12 9.384 11.1585 9.384 10.1198C9.384 9.08175 10.2165 8.24025 11.2425 8.24025C11.6302 8.24025 11.9903 8.36025 12.288 8.5665V8.3385H12.2887ZM18.636 8.2425C18.2153 8.2425 17.8162 8.37525 17.55 8.73975V8.3385H16.5V11.901H17.5627V10.029C17.5627 9.4875 17.922 9.222 18.354 9.222C18.8175 9.222 19.0837 9.5025 19.0837 10.0215V11.9018H20.1375V9.636C20.1375 8.8065 19.485 8.2425 18.636 8.2425ZM7.84875 11.9025H8.95275V6.75H7.84875V11.901V11.9025ZM3 11.9025H4.1685V6.75H3V11.9025ZM7.0875 6.75C7.09046 7.29216 6.98646 7.82958 6.78145 8.3315C6.57644 8.83341 6.27444 9.28996 5.89275 9.675L7.50825 11.9025H6.0645L4.30875 9.4815L4.76175 9.138C5.13127 8.85959 5.43064 8.4987 5.63599 8.0841C5.84133 7.6695 5.94698 7.21266 5.9445 6.75H7.0875Z" fill="#0A0B09"/>
</g>
<g clip-path="url(#clip1_5334_7536)">
<path d="M64.75 0H40.75C39.475 0 38.5 0.975 38.5 2.25V15.75C38.5 17.025 39.55 18 40.75 18H64.75C66.025 18 67 17.025 67 15.75V2.25C67 0.975 65.95 0 64.75 0Z" fill="#8B8C8E"/>
<path d="M64.75 0.75C65.575 0.75 66.25 1.425 66.25 2.25V15.75C66.25 16.575 65.575 17.25 64.75 17.25H40.75C39.925 17.25 39.25 16.575 39.25 15.75V2.25C39.25 1.425 39.925 0.75 40.75 0.75H64.75Z" fill="white"/>
<path d="M47.77 11.6116C48.4231 12.2646 49.3088 12.6315 50.2323 12.6315C51.1558 12.6315 52.0415 12.2646 52.6945 11.6116L52.825 11.4811C53.5045 10.8016 52.1448 7.23614 52.825 6.55664L47.77 11.6116Z" fill="url(#paint0_linear_5334_7536)"/>
<path d="M52.956 6.4243L52.8255 6.5548C52.146 7.2343 53.505 10.7998 52.8255 11.4793L57.8805 6.4243C57.5575 6.10051 57.1737 5.84372 56.7512 5.66868C56.3286 5.49363 55.8757 5.40379 55.4183 5.4043C54.9609 5.40354 54.5079 5.49327 54.0853 5.66833C53.6627 5.84339 53.2789 6.10031 52.956 6.4243Z" fill="url(#paint1_linear_5334_7536)"/>
<path d="M47.7699 6.687C47.1169 7.34004 46.75 8.22574 46.75 9.14925C46.75 10.0728 47.1169 10.9585 47.7699 11.6115L52.9569 6.4245C53.6099 5.77146 53.9767 4.88576 53.9767 3.96225C53.9767 3.03874 53.6099 2.15304 52.9569 1.5L47.7699 6.687Z" fill="url(#paint2_linear_5334_7536)"/>
<path d="M52.6947 11.6108C52.0417 12.2639 51.6748 13.1496 51.6748 14.0731C51.6748 14.9966 52.0417 15.8823 52.6947 16.5353L57.8817 11.3483C58.5347 10.6953 58.9015 9.80959 58.9015 8.88608C58.9015 7.96256 58.5347 7.07687 57.8817 6.42383L52.6947 11.6108Z" fill="url(#paint3_linear_5334_7536)"/>
</g>
<g clip-path="url(#clip2_5334_7536)">
<path d="M103.25 0H79.25C77.975 0 77 0.975 77 2.25V15.75C77 17.025 78.05 18 79.25 18H103.25C104.525 18 105.5 17.025 105.5 15.75V2.25C105.5 0.975 104.45 0 103.25 0Z" fill="#8B8C8E"/>
<path d="M103.25 0.75C104.075 0.75 104.75 1.425 104.75 2.25V15.75C104.75 16.575 104.075 17.25 103.25 17.25H79.25C78.425 17.25 77.75 16.575 77.75 15.75V2.25C77.75 1.425 78.425 0.75 79.25 0.75H103.25Z" fill="#B2FCE4"/>
<path d="M97.5502 4.90756L95.5252 3.70756L93.5002 2.50756C92.1502 1.75756 90.4252 2.73256 90.4252 4.30756V4.60756C90.4252 4.75756 90.5002 4.90756 90.6502 4.98256L91.6252 5.50756C91.9252 5.65756 92.2252 5.43256 92.2252 5.13256V4.53256C92.2252 4.23256 92.5252 4.00756 92.8252 4.15756L94.7002 5.20756L96.5002 6.33256C96.8002 6.48256 96.8002 6.85756 96.5002 7.00756L94.6252 8.05756L92.7502 9.25756C92.4502 9.40756 92.1502 9.18256 92.1502 8.88256V8.58256C92.1502 7.00756 90.4252 6.03256 89.0752 6.78256L87.0502 7.98256L85.0252 9.18256C83.6752 9.93256 83.6752 11.9576 85.0252 12.7076L87.0502 13.9076L89.0752 15.1076C90.4252 15.8576 92.1502 14.8826 92.1502 13.3076V13.0076C92.1502 12.8576 92.0752 12.7076 91.9252 12.6326L90.9502 12.1076C90.6502 11.9576 90.3502 12.1826 90.3502 12.4826V13.0826C90.3502 13.3826 90.0502 13.6076 89.7502 13.4576L87.8752 12.4076L86.0002 11.2826C85.7002 11.1326 85.7002 10.7576 86.0002 10.6076L87.8752 9.55756L89.7502 8.50756C90.0502 8.35756 90.3502 8.58256 90.3502 8.88256V9.18256C90.3502 10.7576 92.0752 11.7326 93.4252 10.9826L95.4502 9.78256L97.4752 8.58256C98.9002 7.68256 98.9002 5.73256 97.5502 4.90756Z" fill="#212428"/>
</g>
<defs>
<linearGradient id="paint0_linear_5334_7536" x1="51.9984" y1="11.7579" x2="49.81" y2="9.14986" gradientUnits="userSpaceOnUse">
<stop stop-color="#CE5DCB"/>
<stop offset="0.2095" stop-color="#C558CC"/>
<stop offset="0.5525" stop-color="#AC4ACF"/>
<stop offset="0.9845" stop-color="#8534D4"/>
<stop offset="1" stop-color="#8333D4"/>
</linearGradient>
<linearGradient id="paint1_linear_5334_7536" x1="52.6293" y1="8.4415" x2="57.8804" y2="8.4415" gradientUnits="userSpaceOnUse">
<stop offset="0.0237" stop-color="#FF5667"/>
<stop offset="0.6592" stop-color="#FC8B82"/>
<stop offset="1" stop-color="#FBA28E"/>
</linearGradient>
<linearGradient id="paint2_linear_5334_7536" x1="46.7498" y1="6.55575" x2="53.9767" y2="6.55575" gradientUnits="userSpaceOnUse">
<stop stop-color="#00B874"/>
<stop offset="0.5126" stop-color="#29D3A2"/>
<stop offset="0.6817" stop-color="#53DFB6"/>
<stop offset="1" stop-color="#9FF4D9"/>
</linearGradient>
<linearGradient id="paint3_linear_5334_7536" x1="51.6746" y1="11.4795" x2="58.9014" y2="11.4795" gradientUnits="userSpaceOnUse">
<stop stop-color="#FCD77E"/>
<stop offset="0.5241" stop-color="#FEA500"/>
<stop offset="1" stop-color="#FF5B00"/>
</linearGradient>
<clipPath id="clip0_5334_7536">
<rect width="28.5" height="18" fill="white"/>
</clipPath>
<clipPath id="clip1_5334_7536">
<rect width="28.5" height="18" fill="white" transform="translate(38.5)"/>
</clipPath>
<clipPath id="clip2_5334_7536">
<rect width="28.5" height="18" fill="white" transform="translate(77)"/>
</clipPath>
</defs>
</svg>
